<svg xmlns="http://www.w3.org/2000/svg" viewBox="0 0 119.63 120.66"><defs><style>.cls-1{fill:#4d4d4d;}.cls-2{fill:#fff;}</style></defs><title>Recurso 2</title><g id="Capa_2" data-name="Capa 2"><g id="Capa_1-2" data-name="Capa 1"><path class="cls-1" d="M55.68.08A59.72,59.72,0,0,0,21.49,14a86.5,86.5,0,0,0-7.6,7.67A60.81,60.81,0,0,0,10.46,94.4a62.4,62.4,0,0,0,12.43,13.39,60.19,60.19,0,0,0,18.62,10,59.51,59.51,0,0,0,52.1-7.71A62.1,62.1,0,0,0,107,97.34a60.78,60.78,0,0,0-1.59-76.12,80.53,80.53,0,0,0-6.49-6.59A59.22,59.22,0,0,0,65.94.22,90.31,90.31,0,0,0,55.68.08Zm9.53,14.83A45,45,0,0,1,91.33,27.49a45.63,45.63,0,0,1,13.6,28.09c.09.78.16,2.78.16,4.74s-.07,4-.16,4.74a45.82,45.82,0,0,1-12.55,27,44.76,44.76,0,0,1-27.29,13.63,54.31,54.31,0,0,1-8.49.19,44.92,44.92,0,0,1-25.19-10,53.93,53.93,0,0,1-6.22-6.14A45.79,45.79,0,0,1,14.81,65.59a61.19,61.19,0,0,1,0-10.59A45.68,45.68,0,0,1,27.29,28.52,45,45,0,0,1,56,14.72a70.88,70.88,0,0,1,9.16.16Z"/><path class="cls-2" d="M56,21.49c-.57.06-1.72.23-2.56.37A38.75,38.75,0,0,0,26.75,40.15a48.26,48.26,0,0,0-3.27,6.9,46.65,46.65,0,0,0-1.91,7.7,30.21,30.21,0,0,0-.29,5.54,32,32,0,0,0,1.1,9.55,35.22,35.22,0,0,0,2.74,7.52A37.72,37.72,0,0,0,36.68,91.45a38.24,38.24,0,0,0,17.77,7.44,29.38,29.38,0,0,0,5.31.27,31,31,0,0,0,9.53-1.1,38.4,38.4,0,0,0,19-11.4,46.86,46.86,0,0,0,4.42-5.85,50.21,50.21,0,0,0,3.49-7.27A40.13,40.13,0,0,0,98,53.89a44.22,44.22,0,0,0-1.82-6.81,50.07,50.07,0,0,0-3.46-7.3,38.71,38.71,0,0,0-22.38-17,32.48,32.48,0,0,0-9.9-1.37c-1.82,0-3.76,0-4.34.07Zm8.3,5.61C73.2,28.1,79.66,32,80,36.62c.41,5-6.09,9.25-15.79,10.43a47.72,47.72,0,0,1-8.89,0c-8.07-1-14.15-4.2-15.54-8.23a6.89,6.89,0,0,1,0-3.5c1.74-5.06,10.91-8.76,21-8.46,1,0,2.64.14,3.54.24Z"/></g></g></svg>