<svg xmlns="http://www.w3.org/2000/svg" viewBox="0 0 490.03 211.93"><defs><style>.cls-1{fill:#fff;}.cls-2{fill:#4d4d4d;}</style></defs><title>Recurso 3</title><g id="Capa_2" data-name="Capa 2"><g id="Capa_1-2" data-name="Capa 1"><path class="cls-1" d="M0,0H20.88V144.24H90v17.52H0Z"/><path class="cls-1" d="M341,45.6c-.48,8.4-1,17.76-1,31.92V145c0,26.64-5.28,43-16.56,53-11.28,10.56-27.6,13.92-42.24,13.92-13.92,0-29.28-3.36-38.64-9.6l5.28-16.08c7.68,4.8,19.68,9.12,34.08,9.12,21.6,0,37.44-11.28,37.44-40.56v-13H319c-6.48,10.8-19,19.44-37,19.44-28.8,0-49.44-24.48-49.44-56.64,0-39.36,25.68-61.68,52.32-61.68,20.16,0,31.2,10.56,36.24,20.16h.48l1-17.52ZM319.2,91.44a30.08,30.08,0,0,0-1.2-9.6c-3.84-12.24-14.16-22.32-29.52-22.32-20.16,0-34.56,17-34.56,43.92,0,22.8,11.52,41.76,34.32,41.76,13,0,24.72-8.16,29.28-21.6a36.74,36.74,0,0,0,1.68-11.28Z"/><path class="cls-2" d="M153,43a59.72,59.72,0,0,0-34.19,13.88,86.5,86.5,0,0,0-7.6,7.67,60.81,60.81,0,0,0-3.43,72.77,62.4,62.4,0,0,0,12.43,13.39,60.19,60.19,0,0,0,18.62,10A59.51,59.51,0,0,0,190.93,153a62.1,62.1,0,0,0,13.41-12.74,60.78,60.78,0,0,0-1.59-76.12,80.53,80.53,0,0,0-6.49-6.59,59.22,59.22,0,0,0-33-14.41A90.31,90.31,0,0,0,153,43Zm9.53,14.83a45,45,0,0,1,26.12,12.58,45.63,45.63,0,0,1,13.6,28.09c.09.78.16,2.78.16,4.74s-.07,4-.16,4.74a45.82,45.82,0,0,1-12.55,27,44.76,44.76,0,0,1-27.29,13.63,54.31,54.31,0,0,1-8.49.19,44.92,44.92,0,0,1-25.19-10,53.93,53.93,0,0,1-6.22-6.14,45.79,45.79,0,0,1-10.38-24.15,61.19,61.19,0,0,1,0-10.59,45.68,45.68,0,0,1,12.48-26.48,45,45,0,0,1,28.76-13.8,70.88,70.88,0,0,1,9.16.16Z"/><path class="cls-1" d="M153.34,64.41c-.57.06-1.72.23-2.56.37a38.75,38.75,0,0,0-26.71,18.29,48.26,48.26,0,0,0-3.27,6.9,46.65,46.65,0,0,0-1.91,7.7,30.21,30.21,0,0,0-.29,5.54,32,32,0,0,0,1.1,9.55,35.22,35.22,0,0,0,2.74,7.52A37.72,37.72,0,0,0,134,134.37a38.24,38.24,0,0,0,17.77,7.44,29.38,29.38,0,0,0,5.31.27,31,31,0,0,0,9.53-1.1,38.4,38.4,0,0,0,19-11.4,46.86,46.86,0,0,0,4.42-5.85,50.21,50.21,0,0,0,3.49-7.27,40.13,40.13,0,0,0,1.76-19.65A44.22,44.22,0,0,0,193.46,90,50.07,50.07,0,0,0,190,82.7a38.71,38.71,0,0,0-22.38-17,32.48,32.48,0,0,0-9.9-1.37c-1.82,0-3.76,0-4.34.07Zm8.3,5.61c8.88,1,15.34,4.91,15.72,9.52.41,5-6.09,9.25-15.79,10.43a47.72,47.72,0,0,1-8.89,0c-8.07-1-14.15-4.2-15.54-8.23a6.89,6.89,0,0,1,0-3.5c1.74-5.06,10.91-8.76,21-8.46,1,0,2.64.14,3.54.24Z"/><path class="cls-1" d="M485.67,41.73A4.08,4.08,0,0,0,482.51,43l-8.24,8.24a4.42,4.42,0,0,0,0,6,4.08,4.08,0,0,0,3.17,1.26,3.41,3.41,0,0,0,2.85-1.28L488.84,49a4.42,4.42,0,0,0,0-6A4.08,4.08,0,0,0,485.67,41.73Z"/><path class="cls-1" d="M431.13,181.58H419.4a4.43,4.43,0,1,0,0,8.86h11.75a4.43,4.43,0,0,0,0-8.86Z"/><path class="cls-1" d="M425.11,36.64a4.33,4.33,0,0,0,4.43-4.45V20.47a4.43,4.43,0,0,0-8.86,0V32.21A4.32,4.32,0,0,0,425.11,36.64Z"/><path class="cls-1" d="M377.54,54.4a4.08,4.08,0,0,0-1.26-3.17L368,43a4.6,4.6,0,0,0-6.34,0,4.42,4.42,0,0,0,0,6l8.24,8.24a4.08,4.08,0,0,0,3.17,1.26,5.3,5.3,0,0,0,3.17-1A4.08,4.08,0,0,0,377.54,54.4Z"/><path class="cls-1" d="M425.11,51.56a51.68,51.68,0,1,0,51.68,51.68A51.69,51.69,0,0,0,425.11,51.56Zm.32,94.8a43,43,0,1,1,42.8-43.12A43.17,43.17,0,0,1,425.43,146.36Z"/><path class="cls-1" d="M442.87,163.82H407.35a4.43,4.43,0,0,0,0,8.86h35.52a4.43,4.43,0,0,0,0-8.86Z"/></g></g></svg>